solid Exported from Blender-2.91.2
facet normal 0.000000 0.000000 1.000000
outer loop
vertex 0.000000 0.000000 0.000000
vertex 10.000000 0.000000 0.000000
vertex 10.000000 10.000000 0.000000
endloop
endfacet
facet normal 0.000000 0.000000 1.000000
outer loop
vertex 0.000000 0.000000 0.000000
vertex 10.000000 10.000000 0.000000
vertex 0.000000 10.000000 0.000000
endloop
endfacet
facet normal 0.000000 0.000000 1.000000
outer loop
vertex 0.000000 10.000000 0.000000
vertex 10.000000 10.000000 0.000000
vertex 10.000000 20.000000 0.000000
endloop
endfacet
facet normal 0.000000 0.000000 1.000000
outer loop
vertex 0.000000 10.000000 0.000000
vertex 10.000000 20.000000 0.000000
vertex 0.000000 20.000000 0.000000
endloop
endfacet
facet normal 0.000000 0.000000 1.000000
outer loop
vertex 0.000000 20.000000 0.000000
vertex 10.000000 20.000000 0.000000
vertex 10.000000 30.000000 0.000000
endloop
endfacet
facet normal 0.000000 0.000000 1.000000
outer loop
vertex 0.000000 20.000000 0.000000
vertex 10.000000 30.000000 0.000000
vertex 0.000000 30.000000 0.000000
endloop
endfacet
facet normal 0.000000 0.000000 1.000000
outer loop
vertex 0.000000 30.000000 0.000000
vertex 10.000000 30.000000 0.000000
vertex 10.000000 40.000000 0.000000
endloop
endfacet
facet normal 0.000000 0.000000 1.000000
outer loop
vertex 0.000000 30.000000 0.000000
vertex 10.000000 40.000000 0.000000
vertex 0.000000 40.000000 0.000000
endloop
endfacet
facet normal 0.000000 0.000000 1.000000
outer loop
vertex 0.000000 40.000000 0.000000
vertex 10.000000 40.000000 0.000000
vertex 10.000000 50.000000 0.000000
endloop
endfacet
facet normal 0.000000 0.000000 1.000000
outer loop
vertex 0.000000 40.000000 0.000000
vertex 10.000000 50.000000 0.000000
vertex 0.000000 50.000000 0.000000
endloop
endfacet
facet normal 0.000000 0.000000 1.000000
outer loop
vertex 0.000000 50.000000 0.000000
vertex 10.000000 50.000000 0.000000
vertex 10.000000 60.000000 0.000000
endloop
endfacet
facet normal 0.000000 0.000000 1.000000
outer loop
vertex 0.000000 50.000000 0.000000
vertex 10.000000 60.000000 0.000000
vertex 0.000000 60.000000 0.000000
endloop
endfacet
facet normal 0.000000 0.000000 1.000000
outer loop
vertex 0.000000 60.000000 0.000000
vertex 10.000000 60.000000 0.000000
vertex 10.000000 70.000000 0.000000
endloop
endfacet
facet normal 0.000000 0.000000 1.000000
outer loop
vertex 0.000000 60.000000 0.000000
vertex 10.000000 70.000000 0.000000
vertex 0.000000 70.000000 0.000000
endloop
endfacet
facet normal 0.000000 -0.668965 0.743294
outer loop
vertex 0.000000 70.000000 0.000000
vertex 10.000000 70.000000 0.000000
vertex 10.000000 80.000000 9.000000
endloop
endfacet
facet normal -0.668965 0.000000 0.743294
outer loop
vertex 0.000000 70.000000 0.000000
vertex 10.000000 80.000000 9.000000
vertex 0.000000 80.000000 0.000000
endloop
endfacet
facet normal -0.556022 0.556022 0.617802
outer loop
vertex 0.000000 80.000000 0.000000
vertex 10.000000 80.000000 9.000000
vertex 10.000000 90.000000 0.000000
endloop
endfacet
facet normal 0.000000 0.000000 1.000000
outer loop
vertex 0.000000 80.000000 0.000000
vertex 10.000000 90.000000 0.000000
vertex 0.000000 90.000000 0.000000
endloop
endfacet
facet normal 0.000000 0.000000 1.000000
outer loop
vertex 0.000000 90.000000 0.000000
vertex 10.000000 90.000000 0.000000
vertex 10.000000 100.000000 0.000000
endloop
endfacet
facet normal 0.000000 0.000000 1.000000
outer loop
vertex 0.000000 90.000000 0.000000
vertex 10.000000 100.000000 0.000000
vertex 0.000000 100.000000 0.000000
endloop
endfacet
facet normal 0.000000 0.000000 1.000000
outer loop
vertex 0.000000 100.000000 0.000000
vertex 10.000000 100.000000 0.000000
vertex 10.000000 110.000000 0.000000
endloop
endfacet
facet normal 0.000000 0.000000 1.000000
outer loop
vertex 0.000000 100.000000 0.000000
vertex 10.000000 110.000000 0.000000
vertex 0.000000 110.000000 0.000000
endloop
endfacet
facet normal 0.000000 0.000000 1.000000
outer loop
vertex 0.000000 110.000000 0.000000
vertex 10.000000 110.000000 0.000000
vertex 10.000000 120.000000 0.000000
endloop
endfacet
facet normal 0.000000 0.000000 1.000000
outer loop
vertex 0.000000 110.000000 0.000000
vertex 10.000000 120.000000 0.000000
vertex 0.000000 120.000000 0.000000
endloop
endfacet
facet normal 0.000000 0.000000 1.000000
outer loop
vertex 10.000000 0.000000 0.000000
vertex 20.000000 0.000000 0.000000
vertex 20.000000 10.000000 0.000000
endloop
endfacet
facet normal 0.000000 0.000000 1.000000
outer loop
vertex 10.000000 0.000000 0.000000
vertex 20.000000 10.000000 0.000000
vertex 10.000000 10.000000 0.000000
endloop
endfacet
facet normal 0.000000 0.000000 1.000000
outer loop
vertex 10.000000 10.000000 0.000000
vertex 20.000000 10.000000 0.000000
vertex 20.000000 20.000000 0.000000
endloop
endfacet
facet normal 0.000000 0.000000 1.000000
outer loop
vertex 10.000000 10.000000 0.000000
vertex 20.000000 20.000000 0.000000
vertex 10.000000 20.000000 0.000000
endloop
endfacet
facet normal 0.000000 0.000000 1.000000
outer loop
vertex 10.000000 20.000000 0.000000
vertex 20.000000 20.000000 0.000000
vertex 20.000000 30.000000 0.000000
endloop
endfacet
facet normal 0.000000 0.000000 1.000000
outer loop
vertex 10.000000 20.000000 0.000000
vertex 20.000000 30.000000 0.000000
vertex 10.000000 30.000000 0.000000
endloop
endfacet
facet normal 0.000000 0.000000 1.000000
outer loop
vertex 10.000000 30.000000 0.000000
vertex 20.000000 30.000000 0.000000
vertex 20.000000 40.000000 0.000000
endloop
endfacet
facet normal 0.000000 0.000000 1.000000
outer loop
vertex 10.000000 30.000000 0.000000
vertex 20.000000 40.000000 0.000000
vertex 10.000000 40.000000 0.000000
endloop
endfacet
facet normal 0.000000 0.000000 1.000000
outer loop
vertex 10.000000 40.000000 0.000000
vertex 20.000000 40.000000 0.000000
vertex 20.000000 50.000000 0.000000
endloop
endfacet
facet normal 0.000000 0.000000 1.000000
outer loop
vertex 10.000000 40.000000 0.000000
vertex 20.000000 50.000000 0.000000
vertex 10.000000 50.000000 0.000000
endloop
endfacet
facet normal 0.000000 0.000000 1.000000
outer loop
vertex 10.000000 50.000000 0.000000
vertex 20.000000 50.000000 0.000000
vertex 20.000000 60.000000 0.000000
endloop
endfacet
facet normal 0.000000 0.000000 1.000000
outer loop
vertex 10.000000 50.000000 0.000000
vertex 20.000000 60.000000 0.000000
vertex 10.000000 60.000000 0.000000
endloop
endfacet
facet normal 0.000000 0.000000 1.000000
outer loop
vertex 10.000000 60.000000 0.000000
vertex 20.000000 60.000000 0.000000
vertex 20.000000 70.000000 0.000000
endloop
endfacet
facet normal 0.000000 0.000000 1.000000
outer loop
vertex 10.000000 60.000000 0.000000
vertex 20.000000 70.000000 0.000000
vertex 10.000000 70.000000 0.000000
endloop
endfacet
facet normal 0.000000 0.000000 1.000000
outer loop
vertex 10.000000 70.000000 0.000000
vertex 20.000000 70.000000 0.000000
vertex 20.000000 80.000000 0.000000
endloop
endfacet
facet normal 0.556022 -0.556022 0.617802
outer loop
vertex 10.000000 70.000000 0.000000
vertex 20.000000 80.000000 0.000000
vertex 10.000000 80.000000 9.000000
endloop
endfacet
facet normal 0.668965 0.000000 0.743294
outer loop
vertex 10.000000 80.000000 9.000000
vertex 20.000000 80.000000 0.000000
vertex 20.000000 90.000000 0.000000
endloop
endfacet
facet normal 0.000000 0.668965 0.743294
outer loop
vertex 10.000000 80.000000 9.000000
vertex 20.000000 90.000000 0.000000
vertex 10.000000 90.000000 0.000000
endloop
endfacet
facet normal 0.000000 0.000000 1.000000
outer loop
vertex 10.000000 90.000000 0.000000
vertex 20.000000 90.000000 0.000000
vertex 20.000000 100.000000 0.000000
endloop
endfacet
facet normal 0.000000 0.000000 1.000000
outer loop
vertex 10.000000 90.000000 0.000000
vertex 20.000000 100.000000 0.000000
vertex 10.000000 100.000000 0.000000
endloop
endfacet
facet normal 0.000000 0.000000 1.000000
outer loop
vertex 10.000000 100.000000 0.000000
vertex 20.000000 100.000000 0.000000
vertex 20.000000 110.000000 0.000000
endloop
endfacet
facet normal 0.000000 0.000000 1.000000
outer loop
vertex 10.000000 100.000000 0.000000
vertex 20.000000 110.000000 0.000000
vertex 10.000000 110.000000 0.000000
endloop
endfacet
facet normal 0.000000 0.000000 1.000000
outer loop
vertex 10.000000 110.000000 0.000000
vertex 20.000000 110.000000 0.000000
vertex 20.000000 120.000000 0.000000
endloop
endfacet
facet normal 0.000000 0.000000 1.000000
outer loop
vertex 10.000000 110.000000 0.000000
vertex 20.000000 120.000000 0.000000
vertex 10.000000 120.000000 0.000000
endloop
endfacet
facet normal 0.000000 0.000000 1.000000
outer loop
vertex 20.000000 0.000000 0.000000
vertex 30.000000 0.000000 0.000000
vertex 30.000000 10.000000 0.000000
endloop
endfacet
facet normal 0.000000 0.000000 1.000000
outer loop
vertex 20.000000 0.000000 0.000000
vertex 30.000000 10.000000 0.000000
vertex 20.000000 10.000000 0.000000
endloop
endfacet
facet normal 0.000000 0.000000 1.000000
outer loop
vertex 20.000000 10.000000 0.000000
vertex 30.000000 10.000000 0.000000
vertex 30.000000 20.000000 0.000000
endloop
endfacet
facet normal 0.000000 0.000000 1.000000
outer loop
vertex 20.000000 10.000000 0.000000
vertex 30.000000 20.000000 0.000000
vertex 20.000000 20.000000 0.000000
endloop
endfacet
facet normal 0.000000 0.000000 1.000000
outer loop
vertex 20.000000 20.000000 0.000000
vertex 30.000000 20.000000 0.000000
vertex 30.000000 30.000000 0.000000
endloop
endfacet
facet normal 0.000000 0.000000 1.000000
outer loop
vertex 20.000000 20.000000 0.000000
vertex 30.000000 30.000000 0.000000
vertex 20.000000 30.000000 0.000000
endloop
endfacet
facet normal 0.000000 0.000000 1.000000
outer loop
vertex 20.000000 30.000000 0.000000
vertex 30.000000 30.000000 0.000000
vertex 30.000000 40.000000 0.000000
endloop
endfacet
facet normal 0.000000 0.000000 1.000000
outer loop
vertex 20.000000 30.000000 0.000000
vertex 30.000000 40.000000 0.000000
vertex 20.000000 40.000000 0.000000
endloop
endfacet
facet normal 0.000000 0.000000 1.000000
outer loop
vertex 20.000000 40.000000 0.000000
vertex 30.000000 40.000000 0.000000
vertex 30.000000 50.000000 0.000000
endloop
endfacet
facet normal 0.000000 0.000000 1.000000
outer loop
vertex 20.000000 40.000000 0.000000
vertex 30.000000 50.000000 0.000000
vertex 20.000000 50.000000 0.000000
endloop
endfacet
facet normal 0.000000 0.000000 1.000000
outer loop
vertex 20.000000 50.000000 0.000000
vertex 30.000000 50.000000 0.000000
vertex 30.000000 60.000000 0.000000
endloop
endfacet
facet normal 0.000000 0.000000 1.000000
outer loop
vertex 20.000000 50.000000 0.000000
vertex 30.000000 60.000000 0.000000
vertex 20.000000 60.000000 0.000000
endloop
endfacet
facet normal 0.000000 0.000000 1.000000
outer loop
vertex 20.000000 60.000000 0.000000
vertex 30.000000 60.000000 0.000000
vertex 30.000000 70.000000 0.000000
endloop
endfacet
facet normal 0.000000 0.000000 1.000000
outer loop
vertex 20.000000 60.000000 0.000000
vertex 30.000000 70.000000 0.000000
vertex 20.000000 70.000000 0.000000
endloop
endfacet
facet normal 0.000000 0.000000 1.000000
outer loop
vertex 20.000000 70.000000 0.000000
vertex 30.000000 70.000000 0.000000
vertex 30.000000 80.000000 0.000000
endloop
endfacet
facet normal 0.000000 0.000000 1.000000
outer loop
vertex 20.000000 70.000000 0.000000
vertex 30.000000 80.000000 0.000000
vertex 20.000000 80.000000 0.000000
endloop
endfacet
facet normal 0.000000 0.000000 1.000000
outer loop
vertex 20.000000 80.000000 0.000000
vertex 30.000000 80.000000 0.000000
vertex 30.000000 90.000000 0.000000
endloop
endfacet
facet normal 0.000000 0.000000 1.000000
outer loop
vertex 20.000000 80.000000 0.000000
vertex 30.000000 90.000000 0.000000
vertex 20.000000 90.000000 0.000000
endloop
endfacet
facet normal 0.000000 -0.668965 0.743294
outer loop
vertex 20.000000 90.000000 0.000000
vertex 30.000000 90.000000 0.000000
vertex 30.000000 100.000000 9.000000
endloop
endfacet
facet normal -0.668965 0.000000 0.743294
outer loop
vertex 20.000000 90.000000 0.000000
vertex 30.000000 100.000000 9.000000
vertex 20.000000 100.000000 0.000000
endloop
endfacet
facet normal -0.668965 0.000000 0.743294
outer loop
vertex 20.000000 100.000000 0.000000
vertex 30.000000 100.000000 9.000000
vertex 30.000000 110.000000 9.000000
endloop
endfacet
facet normal -0.668965 0.000000 0.743294
outer loop
vertex 20.000000 100.000000 0.000000
vertex 30.000000 110.000000 9.000000
vertex 20.000000 110.000000 0.000000
endloop
endfacet
facet normal -0.668965 0.000000 0.743294
outer loop
vertex 20.000000 110.000000 0.000000
vertex 30.000000 110.000000 9.000000
vertex 30.000000 120.000000 9.000000
endloop
endfacet
facet normal -0.668965 0.000000 0.743294
outer loop
vertex 20.000000 110.000000 0.000000
vertex 30.000000 120.000000 9.000000
vertex 20.000000 120.000000 0.000000
endloop
endfacet
facet normal -0.556022 0.556022 0.617802
outer loop
vertex 30.000000 0.000000 0.000000
vertex 40.000000 0.000000 9.000000
vertex 40.000000 10.000000 0.000000
endloop
endfacet
facet normal 0.000000 0.000000 1.000000
outer loop
vertex 30.000000 0.000000 0.000000
vertex 40.000000 10.000000 0.000000
vertex 30.000000 10.000000 0.000000
endloop
endfacet
facet normal 0.000000 -0.668965 0.743294
outer loop
vertex 30.000000 10.000000 0.000000
vertex 40.000000 10.000000 0.000000
vertex 40.000000 20.000000 9.000000
endloop
endfacet
facet normal -0.668965 0.000000 0.743294
outer loop
vertex 30.000000 10.000000 0.000000
vertex 40.000000 20.000000 9.000000
vertex 30.000000 20.000000 0.000000
endloop
endfacet
facet normal -0.556022 0.556022 0.617802
outer loop
vertex 30.000000 20.000000 0.000000
vertex 40.000000 20.000000 9.000000
vertex 40.000000 30.000000 0.000000
endloop
endfacet
facet normal 0.000000 0.000000 1.000000
outer loop
vertex 30.000000 20.000000 0.000000
vertex 40.000000 30.000000 0.000000
vertex 30.000000 30.000000 0.000000
endloop
endfacet
facet normal 0.000000 0.000000 1.000000
outer loop
vertex 30.000000 30.000000 0.000000
vertex 40.000000 30.000000 0.000000
vertex 40.000000 40.000000 0.000000
endloop
endfacet
facet normal 0.000000 0.000000 1.000000
outer loop
vertex 30.000000 30.000000 0.000000
vertex 40.000000 40.000000 0.000000
vertex 30.000000 40.000000 0.000000
endloop
endfacet
facet normal 0.000000 -0.668965 0.743294
outer loop
vertex 30.000000 40.000000 0.000000
vertex 40.000000 40.000000 0.000000
vertex 40.000000 50.000000 9.000000
endloop
endfacet
facet normal -0.668965 0.000000 0.743294
outer loop
vertex 30.000000 40.000000 0.000000
vertex 40.000000 50.000000 9.000000
vertex 30.000000 50.000000 0.000000
endloop
endfacet
facet normal -0.556022 0.556022 0.617802
outer loop
vertex 30.000000 50.000000 0.000000
vertex 40.000000 50.000000 9.000000
vertex 40.000000 60.000000 0.000000
endloop
endfacet
facet normal 0.000000 0.000000 1.000000
outer loop
vertex 30.000000 50.000000 0.000000
vertex 40.000000 60.000000 0.000000
vertex 30.000000 60.000000 0.000000
endloop
endfacet
facet normal 0.000000 -0.668965 0.743294
outer loop
vertex 30.000000 60.000000 0.000000
vertex 40.000000 60.000000 0.000000
vertex 40.000000 70.000000 9.000000
endloop
endfacet
facet normal -0.668965 0.000000 0.743294
outer loop
vertex 30.000000 60.000000 0.000000
vertex 40.000000 70.000000 9.000000
vertex 30.000000 70.000000 0.000000
endloop
endfacet
facet normal -0.556022 0.556022 0.617802
outer loop
vertex 30.000000 70.000000 0.000000
vertex 40.000000 70.000000 9.000000
vertex 40.000000 80.000000 0.000000
endloop
endfacet
facet normal 0.000000 0.000000 1.000000
outer loop
vertex 30.000000 70.000000 0.000000
vertex 40.000000 80.000000 0.000000
vertex 30.000000 80.000000 0.000000
endloop
endfacet
facet normal 0.000000 0.000000 1.000000
outer loop
vertex 30.000000 80.000000 0.000000
vertex 40.000000 80.000000 0.000000
vertex 40.000000 90.000000 0.000000
endloop
endfacet
facet normal 0.000000 0.000000 1.000000
outer loop
vertex 30.000000 80.000000 0.000000
vertex 40.000000 90.000000 0.000000
vertex 30.000000 90.000000 0.000000
endloop
endfacet
facet normal 0.000000 -0.668965 0.743294
outer loop
vertex 30.000000 90.000000 0.000000
vertex 40.000000 90.000000 0.000000
vertex 40.000000 100.000000 9.000000
endloop
endfacet
facet normal 0.000000 -0.668965 0.743294
outer loop
vertex 30.000000 90.000000 0.000000
vertex 40.000000 100.000000 9.000000
vertex 30.000000 100.000000 9.000000
endloop
endfacet
facet normal 0.000000 0.000000 1.000000
outer loop
vertex 30.000000 100.000000 9.000000
vertex 40.000000 100.000000 9.000000
vertex 40.000000 110.000000 9.000000
endloop
endfacet
facet normal 0.000000 0.000000 1.000000
outer loop
vertex 30.000000 100.000000 9.000000
vertex 40.000000 110.000000 9.000000
vertex 30.000000 110.000000 9.000000
endloop
endfacet
facet normal 0.000000 0.000000 1.000000
outer loop
vertex 30.000000 110.000000 9.000000
vertex 40.000000 110.000000 9.000000
vertex 40.000000 120.000000 9.000000
endloop
endfacet
facet normal 0.000000 0.000000 1.000000
outer loop
vertex 30.000000 110.000000 9.000000
vertex 40.000000 120.000000 9.000000
vertex 30.000000 120.000000 9.000000
endloop
endfacet
facet normal 0.000000 0.668965 0.743294
outer loop
vertex 40.000000 0.000000 9.000000
vertex 50.000000 0.000000 9.000000
vertex 50.000000 10.000000 0.000000
endloop
endfacet
facet normal 0.000000 0.668965 0.743294
outer loop
vertex 40.000000 0.000000 9.000000
vertex 50.000000 10.000000 0.000000
vertex 40.000000 10.000000 0.000000
endloop
endfacet
facet normal 0.000000 -0.668965 0.743294
outer loop
vertex 40.000000 10.000000 0.000000
vertex 50.000000 10.000000 0.000000
vertex 50.000000 20.000000 9.000000
endloop
endfacet
facet normal 0.000000 -0.668965 0.743294
outer loop
vertex 40.000000 10.000000 0.000000
vertex 50.000000 20.000000 9.000000
vertex 40.000000 20.000000 9.000000
endloop
endfacet
facet normal 0.000000 0.668965 0.743294
outer loop
vertex 40.000000 20.000000 9.000000
vertex 50.000000 20.000000 9.000000
vertex 50.000000 30.000000 0.000000
endloop
endfacet
facet normal 0.000000 0.668965 0.743294
outer loop
vertex 40.000000 20.000000 9.000000
vertex 50.000000 30.000000 0.000000
vertex 40.000000 30.000000 0.000000
endloop
endfacet
facet normal 0.000000 -0.668965 0.743294
outer loop
vertex 40.000000 30.000000 0.000000
vertex 50.000000 30.000000 0.000000
vertex 50.000000 40.000000 9.000000
endloop
endfacet
facet normal -0.668965 0.000000 0.743294
outer loop
vertex 40.000000 30.000000 0.000000
vertex 50.000000 40.000000 9.000000
vertex 40.000000 40.000000 0.000000
endloop
endfacet
facet normal -0.556022 -0.556022 0.617802
outer loop
vertex 40.000000 40.000000 0.000000
vertex 50.000000 40.000000 9.000000
vertex 40.000000 50.000000 9.000000
endloop
endfacet
facet normal 0.556022 0.556022 0.617802
outer loop
vertex 50.000000 40.000000 9.000000
vertex 50.000000 50.000000 0.000000
vertex 40.000000 50.000000 9.000000
endloop
endfacet
facet normal 0.556022 0.556022 0.617802
outer loop
vertex 40.000000 50.000000 9.000000
vertex 50.000000 50.000000 0.000000
vertex 40.000000 60.000000 0.000000
endloop
endfacet
facet normal -0.556022 -0.556022 0.617802
outer loop
vertex 50.000000 50.000000 0.000000
vertex 50.000000 60.000000 9.000000
vertex 40.000000 60.000000 0.000000
endloop
endfacet
facet normal -0.556022 -0.556022 0.617802
outer loop
vertex 40.000000 60.000000 0.000000
vertex 50.000000 60.000000 9.000000
vertex 40.000000 70.000000 9.000000
endloop
endfacet
facet normal 0.556022 0.556022 0.617802
outer loop
vertex 50.000000 60.000000 9.000000
vertex 50.000000 70.000000 0.000000
vertex 40.000000 70.000000 9.000000
endloop
endfacet
facet normal 0.668965 0.000000 0.743294
outer loop
vertex 40.000000 70.000000 9.000000
vertex 50.000000 70.000000 0.000000
vertex 50.000000 80.000000 0.000000
endloop
endfacet
facet normal 0.000000 0.668965 0.743294
outer loop
vertex 40.000000 70.000000 9.000000
vertex 50.000000 80.000000 0.000000
vertex 40.000000 80.000000 0.000000
endloop
endfacet
facet normal 0.000000 0.000000 1.000000
outer loop
vertex 40.000000 80.000000 0.000000
vertex 50.000000 80.000000 0.000000
vertex 50.000000 90.000000 0.000000
endloop
endfacet
facet normal 0.000000 0.000000 1.000000
outer loop
vertex 40.000000 80.000000 0.000000
vertex 50.000000 90.000000 0.000000
vertex 40.000000 90.000000 0.000000
endloop
endfacet
facet normal 0.000000 -0.668965 0.743294
outer loop
vertex 40.000000 90.000000 0.000000
vertex 50.000000 90.000000 0.000000
vertex 50.000000 100.000000 9.000000
endloop
endfacet
facet normal 0.000000 -0.668965 0.743294
outer loop
vertex 40.000000 90.000000 0.000000
vertex 50.000000 100.000000 9.000000
vertex 40.000000 100.000000 9.000000
endloop
endfacet
facet normal 0.000000 0.668965 0.743294
outer loop
vertex 40.000000 100.000000 9.000000
vertex 50.000000 100.000000 9.000000
vertex 50.000000 110.000000 0.000000
endloop
endfacet
facet normal 0.668965 0.000000 0.743294
outer loop
vertex 40.000000 100.000000 9.000000
vertex 50.000000 110.000000 0.000000
vertex 40.000000 110.000000 9.000000
endloop
endfacet
facet normal 0.556022 -0.556022 0.617802
outer loop
vertex 40.000000 110.000000 9.000000
vertex 50.000000 110.000000 0.000000
vertex 50.000000 120.000000 9.000000
endloop
endfacet
facet normal 0.000000 0.000000 1.000000
outer loop
vertex 40.000000 110.000000 9.000000
vertex 50.000000 120.000000 9.000000
vertex 40.000000 120.000000 9.000000
endloop
endfacet
facet normal 0.668965 0.000000 0.743294
outer loop
vertex 50.000000 0.000000 9.000000
vertex 60.000000 0.000000 0.000000
vertex 60.000000 10.000000 0.000000
endloop
endfacet
facet normal 0.000000 0.668965 0.743294
outer loop
vertex 50.000000 0.000000 9.000000
vertex 60.000000 10.000000 0.000000
vertex 50.000000 10.000000 0.000000
endloop
endfacet
facet normal 0.000000 0.000000 1.000000
outer loop
vertex 50.000000 10.000000 0.000000
vertex 60.000000 10.000000 0.000000
vertex 60.000000 20.000000 0.000000
endloop
endfacet
facet normal 0.556022 -0.556022 0.617802
outer loop
vertex 50.000000 10.000000 0.000000
vertex 60.000000 20.000000 0.000000
vertex 50.000000 20.000000 9.000000
endloop
endfacet
facet normal 0.556022 0.556022 0.617802
outer loop
vertex 50.000000 20.000000 9.000000
vertex 60.000000 20.000000 0.000000
vertex 50.000000 30.000000 0.000000
endloop
endfacet
facet normal -0.556022 -0.556022 0.617802
outer loop
vertex 60.000000 20.000000 0.000000
vertex 60.000000 30.000000 9.000000
vertex 50.000000 30.000000 0.000000
endloop
endfacet
facet normal -0.556022 -0.556022 0.617802
outer loop
vertex 50.000000 30.000000 0.000000
vertex 60.000000 30.000000 9.000000
vertex 50.000000 40.000000 9.000000
endloop
endfacet
facet normal 0.556022 0.556022 0.617802
outer loop
vertex 60.000000 30.000000 9.000000
vertex 60.000000 40.000000 0.000000
vertex 50.000000 40.000000 9.000000
endloop
endfacet
facet normal 0.668965 0.000000 0.743294
outer loop
vertex 50.000000 40.000000 9.000000
vertex 60.000000 40.000000 0.000000
vertex 60.000000 50.000000 0.000000
endloop
endfacet
facet normal 0.000000 0.668965 0.743294
outer loop
vertex 50.000000 40.000000 9.000000
vertex 60.000000 50.000000 0.000000
vertex 50.000000 50.000000 0.000000
endloop
endfacet
facet normal 0.000000 -0.668965 0.743294
outer loop
vertex 50.000000 50.000000 0.000000
vertex 60.000000 50.000000 0.000000
vertex 60.000000 60.000000 9.000000
endloop
endfacet
facet normal 0.000000 -0.668965 0.743294
outer loop
vertex 50.000000 50.000000 0.000000
vertex 60.000000 60.000000 9.000000
vertex 50.000000 60.000000 9.000000
endloop
endfacet
facet normal 0.000000 0.000000 1.000000
outer loop
vertex 50.000000 60.000000 9.000000
vertex 60.000000 60.000000 9.000000
vertex 60.000000 70.000000 9.000000
endloop
endfacet
facet normal -0.556022 0.556022 0.617802
outer loop
vertex 50.000000 60.000000 9.000000
vertex 60.000000 70.000000 9.000000
vertex 50.000000 70.000000 0.000000
endloop
endfacet
facet normal -0.668965 0.000000 0.743294
outer loop
vertex 50.000000 70.000000 0.000000
vertex 60.000000 70.000000 9.000000
vertex 60.000000 80.000000 9.000000
endloop
endfacet
facet normal -0.668965 0.000000 0.743294
outer loop
vertex 50.000000 70.000000 0.000000
vertex 60.000000 80.000000 9.000000
vertex 50.000000 80.000000 0.000000
endloop
endfacet
facet normal -0.668965 0.000000 0.743294
outer loop
vertex 50.000000 80.000000 0.000000
vertex 60.000000 80.000000 9.000000
vertex 60.000000 90.000000 9.000000
endloop
endfacet
facet normal -0.668965 0.000000 0.743294
outer loop
vertex 50.000000 80.000000 0.000000
vertex 60.000000 90.000000 9.000000
vertex 50.000000 90.000000 0.000000
endloop
endfacet
facet normal -0.668965 0.000000 0.743294
outer loop
vertex 50.000000 90.000000 0.000000
vertex 60.000000 90.000000 9.000000
vertex 60.000000 100.000000 9.000000
endloop
endfacet
facet normal 0.000000 -0.668965 0.743294
outer loop
vertex 50.000000 90.000000 0.000000
vertex 60.000000 100.000000 9.000000
vertex 50.000000 100.000000 9.000000
endloop
endfacet
facet normal 0.000000 0.668965 0.743294
outer loop
vertex 50.000000 100.000000 9.000000
vertex 60.000000 100.000000 9.000000
vertex 60.000000 110.000000 0.000000
endloop
endfacet
facet normal 0.000000 0.668965 0.743294
outer loop
vertex 50.000000 100.000000 9.000000
vertex 60.000000 110.000000 0.000000
vertex 50.000000 110.000000 0.000000
endloop
endfacet
facet normal 0.000000 -0.668965 0.743294
outer loop
vertex 50.000000 110.000000 0.000000
vertex 60.000000 110.000000 0.000000
vertex 60.000000 120.000000 9.000000
endloop
endfacet
facet normal 0.000000 -0.668965 0.743294
outer loop
vertex 50.000000 110.000000 0.000000
vertex 60.000000 120.000000 9.000000
vertex 50.000000 120.000000 9.000000
endloop
endfacet
facet normal 0.000000 -0.668965 0.743294
outer loop
vertex 60.000000 0.000000 0.000000
vertex 70.000000 0.000000 0.000000
vertex 70.000000 10.000000 9.000000
endloop
endfacet
facet normal -0.668965 0.000000 0.743294
outer loop
vertex 60.000000 0.000000 0.000000
vertex 70.000000 10.000000 9.000000
vertex 60.000000 10.000000 0.000000
endloop
endfacet
facet normal -0.556022 0.556022 0.617802
outer loop
vertex 60.000000 10.000000 0.000000
vertex 70.000000 10.000000 9.000000
vertex 70.000000 20.000000 0.000000
endloop
endfacet
facet normal 0.000000 0.000000 1.000000
outer loop
vertex 60.000000 10.000000 0.000000
vertex 70.000000 20.000000 0.000000
vertex 60.000000 20.000000 0.000000
endloop
endfacet
facet normal 0.000000 0.000000 1.000000
outer loop
vertex 60.000000 20.000000 0.000000
vertex 70.000000 20.000000 0.000000
vertex 70.000000 30.000000 0.000000
endloop
endfacet
facet normal 0.556022 -0.556022 0.617802
outer loop
vertex 60.000000 20.000000 0.000000
vertex 70.000000 30.000000 0.000000
vertex 60.000000 30.000000 9.000000
endloop
endfacet
facet normal 0.668965 0.000000 0.743294
outer loop
vertex 60.000000 30.000000 9.000000
vertex 70.000000 30.000000 0.000000
vertex 70.000000 40.000000 0.000000
endloop
endfacet
facet normal 0.000000 0.668965 0.743294
outer loop
vertex 60.000000 30.000000 9.000000
vertex 70.000000 40.000000 0.000000
vertex 60.000000 40.000000 0.000000
endloop
endfacet
facet normal 0.000000 0.000000 1.000000
outer loop
vertex 60.000000 40.000000 0.000000
vertex 70.000000 40.000000 0.000000
vertex 70.000000 50.000000 0.000000
endloop
endfacet
facet normal 0.000000 0.000000 1.000000
outer loop
vertex 60.000000 40.000000 0.000000
vertex 70.000000 50.000000 0.000000
vertex 60.000000 50.000000 0.000000
endloop
endfacet
facet normal 0.000000 -0.668965 0.743294
outer loop
vertex 60.000000 50.000000 0.000000
vertex 70.000000 50.000000 0.000000
vertex 70.000000 60.000000 9.000000
endloop
endfacet
facet normal 0.000000 -0.668965 0.743294
outer loop
vertex 60.000000 50.000000 0.000000
vertex 70.000000 60.000000 9.000000
vertex 60.000000 60.000000 9.000000
endloop
endfacet
facet normal 0.000000 0.000000 1.000000
outer loop
vertex 60.000000 60.000000 9.000000
vertex 70.000000 60.000000 9.000000
vertex 70.000000 70.000000 9.000000
endloop
endfacet
facet normal 0.000000 0.000000 1.000000
outer loop
vertex 60.000000 60.000000 9.000000
vertex 70.000000 70.000000 9.000000
vertex 60.000000 70.000000 9.000000
endloop
endfacet
facet normal 0.000000 0.000000 1.000000
outer loop
vertex 60.000000 70.000000 9.000000
vertex 70.000000 70.000000 9.000000
vertex 70.000000 80.000000 9.000000
endloop
endfacet
facet normal 0.000000 0.000000 1.000000
outer loop
vertex 60.000000 70.000000 9.000000
vertex 70.000000 80.000000 9.000000
vertex 60.000000 80.000000 9.000000
endloop
endfacet
facet normal 0.000000 0.000000 1.000000
outer loop
vertex 60.000000 80.000000 9.000000
vertex 70.000000 80.000000 9.000000
vertex 70.000000 90.000000 9.000000
endloop
endfacet
facet normal 0.000000 0.000000 1.000000
outer loop
vertex 60.000000 80.000000 9.000000
vertex 70.000000 90.000000 9.000000
vertex 60.000000 90.000000 9.000000
endloop
endfacet
facet normal 0.000000 0.668965 0.743294
outer loop
vertex 60.000000 90.000000 9.000000
vertex 70.000000 90.000000 9.000000
vertex 70.000000 100.000000 0.000000
endloop
endfacet
facet normal 0.668965 0.000000 0.743294
outer loop
vertex 60.000000 90.000000 9.000000
vertex 70.000000 100.000000 0.000000
vertex 60.000000 100.000000 9.000000
endloop
endfacet
facet normal 0.668965 0.000000 0.743294
outer loop
vertex 60.000000 100.000000 9.000000
vertex 70.000000 100.000000 0.000000
vertex 70.000000 110.000000 0.000000
endloop
endfacet
facet normal 0.000000 0.668965 0.743294
outer loop
vertex 60.000000 100.000000 9.000000
vertex 70.000000 110.000000 0.000000
vertex 60.000000 110.000000 0.000000
endloop
endfacet
facet normal 0.000000 -0.668965 0.743294
outer loop
vertex 60.000000 110.000000 0.000000
vertex 70.000000 110.000000 0.000000
vertex 70.000000 120.000000 9.000000
endloop
endfacet
facet normal 0.000000 -0.668965 0.743294
outer loop
vertex 60.000000 110.000000 0.000000
vertex 70.000000 120.000000 9.000000
vertex 60.000000 120.000000 9.000000
endloop
endfacet
facet normal 0.000000 -0.668965 0.743294
outer loop
vertex 70.000000 0.000000 0.000000
vertex 80.000000 0.000000 0.000000
vertex 80.000000 10.000000 9.000000
endloop
endfacet
facet normal 0.000000 -0.668965 0.743294
outer loop
vertex 70.000000 0.000000 0.000000
vertex 80.000000 10.000000 9.000000
vertex 70.000000 10.000000 9.000000
endloop
endfacet
facet normal 0.000000 0.668965 0.743294
outer loop
vertex 70.000000 10.000000 9.000000
vertex 80.000000 10.000000 9.000000
vertex 80.000000 20.000000 0.000000
endloop
endfacet
facet normal 0.000000 0.668965 0.743294
outer loop
vertex 70.000000 10.000000 9.000000
vertex 80.000000 20.000000 0.000000
vertex 70.000000 20.000000 0.000000
endloop
endfacet
facet normal 0.000000 0.000000 1.000000
outer loop
vertex 70.000000 20.000000 0.000000
vertex 80.000000 20.000000 0.000000
vertex 80.000000 30.000000 0.000000
endloop
endfacet
facet normal 0.000000 0.000000 1.000000
outer loop
vertex 70.000000 20.000000 0.000000
vertex 80.000000 30.000000 0.000000
vertex 70.000000 30.000000 0.000000
endloop
endfacet
facet normal 0.000000 -0.668965 0.743294
outer loop
vertex 70.000000 30.000000 0.000000
vertex 80.000000 30.000000 0.000000
vertex 80.000000 40.000000 9.000000
endloop
endfacet
facet normal -0.668965 0.000000 0.743294
outer loop
vertex 70.000000 30.000000 0.000000
vertex 80.000000 40.000000 9.000000
vertex 70.000000 40.000000 0.000000
endloop
endfacet
facet normal -0.556022 0.556022 0.617802
outer loop
vertex 70.000000 40.000000 0.000000
vertex 80.000000 40.000000 9.000000
vertex 80.000000 50.000000 0.000000
endloop
endfacet
facet normal 0.000000 0.000000 1.000000
outer loop
vertex 70.000000 40.000000 0.000000
vertex 80.000000 50.000000 0.000000
vertex 70.000000 50.000000 0.000000
endloop
endfacet
facet normal 0.000000 -0.668965 0.743294
outer loop
vertex 70.000000 50.000000 0.000000
vertex 80.000000 50.000000 0.000000
vertex 80.000000 60.000000 9.000000
endloop
endfacet
facet normal 0.000000 -0.668965 0.743294
outer loop
vertex 70.000000 50.000000 0.000000
vertex 80.000000 60.000000 9.000000
vertex 70.000000 60.000000 9.000000
endloop
endfacet
facet normal 0.000000 0.000000 1.000000
outer loop
vertex 70.000000 60.000000 9.000000
vertex 80.000000 60.000000 9.000000
vertex 80.000000 70.000000 9.000000
endloop
endfacet
facet normal 0.000000 0.000000 1.000000
outer loop
vertex 70.000000 60.000000 9.000000
vertex 80.000000 70.000000 9.000000
vertex 70.000000 70.000000 9.000000
endloop
endfacet
facet normal 0.000000 0.000000 1.000000
outer loop
vertex 70.000000 70.000000 9.000000
vertex 80.000000 70.000000 9.000000
vertex 80.000000 80.000000 9.000000
endloop
endfacet
facet normal 0.000000 0.000000 1.000000
outer loop
vertex 70.000000 70.000000 9.000000
vertex 80.000000 80.000000 9.000000
vertex 70.000000 80.000000 9.000000
endloop
endfacet
facet normal 0.000000 0.000000 1.000000
outer loop
vertex 70.000000 80.000000 9.000000
vertex 80.000000 80.000000 9.000000
vertex 80.000000 90.000000 9.000000
endloop
endfacet
facet normal 0.000000 0.000000 1.000000
outer loop
vertex 70.000000 80.000000 9.000000
vertex 80.000000 90.000000 9.000000
vertex 70.000000 90.000000 9.000000
endloop
endfacet
facet normal 0.000000 0.000000 1.000000
outer loop
vertex 70.000000 90.000000 9.000000
vertex 80.000000 90.000000 9.000000
vertex 80.000000 100.000000 9.000000
endloop
endfacet
facet normal -0.556022 0.556022 0.617802
outer loop
vertex 70.000000 90.000000 9.000000
vertex 80.000000 100.000000 9.000000
vertex 70.000000 100.000000 0.000000
endloop
endfacet
facet normal -0.556022 0.556022 0.617802
outer loop
vertex 70.000000 100.000000 0.000000
vertex 80.000000 100.000000 9.000000
vertex 80.000000 110.000000 0.000000
endloop
endfacet
facet normal 0.000000 0.000000 1.000000
outer loop
vertex 70.000000 100.000000 0.000000
vertex 80.000000 110.000000 0.000000
vertex 70.000000 110.000000 0.000000
endloop
endfacet
facet normal 0.000000 -0.668965 0.743294
outer loop
vertex 70.000000 110.000000 0.000000
vertex 80.000000 110.000000 0.000000
vertex 80.000000 120.000000 9.000000
endloop
endfacet
facet normal 0.000000 -0.668965 0.743294
outer loop
vertex 70.000000 110.000000 0.000000
vertex 80.000000 120.000000 9.000000
vertex 70.000000 120.000000 9.000000
endloop
endfacet
facet normal 0.000000 -0.668965 0.743294
outer loop
vertex 80.000000 0.000000 0.000000
vertex 90.000000 0.000000 0.000000
vertex 90.000000 10.000000 9.000000
endloop
endfacet
facet normal 0.000000 -0.668965 0.743294
outer loop
vertex 80.000000 0.000000 0.000000
vertex 90.000000 10.000000 9.000000
vertex 80.000000 10.000000 9.000000
endloop
endfacet
facet normal 0.000000 0.668965 0.743294
outer loop
vertex 80.000000 10.000000 9.000000
vertex 90.000000 10.000000 9.000000
vertex 90.000000 20.000000 0.000000
endloop
endfacet
facet normal 0.000000 0.668965 0.743294
outer loop
vertex 80.000000 10.000000 9.000000
vertex 90.000000 20.000000 0.000000
vertex 80.000000 20.000000 0.000000
endloop
endfacet
facet normal 0.000000 -0.668965 0.743294
outer loop
vertex 80.000000 20.000000 0.000000
vertex 90.000000 20.000000 0.000000
vertex 90.000000 30.000000 9.000000
endloop
endfacet
facet normal -0.668965 0.000000 0.743294
outer loop
vertex 80.000000 20.000000 0.000000
vertex 90.000000 30.000000 9.000000
vertex 80.000000 30.000000 0.000000
endloop
endfacet
facet normal -0.556022 -0.556022 0.617802
outer loop
vertex 80.000000 30.000000 0.000000
vertex 90.000000 30.000000 9.000000
vertex 80.000000 40.000000 9.000000
endloop
endfacet
facet normal 0.556022 0.556022 0.617802
outer loop
vertex 90.000000 30.000000 9.000000
vertex 90.000000 40.000000 0.000000
vertex 80.000000 40.000000 9.000000
endloop
endfacet
facet normal 0.556022 0.556022 0.617802
outer loop
vertex 80.000000 40.000000 9.000000
vertex 90.000000 40.000000 0.000000
vertex 80.000000 50.000000 0.000000
endloop
endfacet
facet normal -0.556022 -0.556022 0.617802
outer loop
vertex 90.000000 40.000000 0.000000
vertex 90.000000 50.000000 9.000000
vertex 80.000000 50.000000 0.000000
endloop
endfacet
facet normal -0.556022 -0.556022 0.617802
outer loop
vertex 80.000000 50.000000 0.000000
vertex 90.000000 50.000000 9.000000
vertex 80.000000 60.000000 9.000000
endloop
endfacet
facet normal 0.556022 0.556022 0.617802
outer loop
vertex 90.000000 50.000000 9.000000
vertex 90.000000 60.000000 0.000000
vertex 80.000000 60.000000 9.000000
endloop
endfacet
facet normal 0.668965 0.000000 0.743294
outer loop
vertex 80.000000 60.000000 9.000000
vertex 90.000000 60.000000 0.000000
vertex 90.000000 70.000000 0.000000
endloop
endfacet
facet normal 0.668965 0.000000 0.743294
outer loop
vertex 80.000000 60.000000 9.000000
vertex 90.000000 70.000000 0.000000
vertex 80.000000 70.000000 9.000000
endloop
endfacet
facet normal 0.556022 -0.556022 0.617802
outer loop
vertex 80.000000 70.000000 9.000000
vertex 90.000000 70.000000 0.000000
vertex 90.000000 80.000000 9.000000
endloop
endfacet
facet normal 0.000000 0.000000 1.000000
outer loop
vertex 80.000000 70.000000 9.000000
vertex 90.000000 80.000000 9.000000
vertex 80.000000 80.000000 9.000000
endloop
endfacet
facet normal 0.000000 0.668965 0.743294
outer loop
vertex 80.000000 80.000000 9.000000
vertex 90.000000 80.000000 9.000000
vertex 90.000000 90.000000 0.000000
endloop
endfacet
facet normal 0.668965 0.000000 0.743294
outer loop
vertex 80.000000 80.000000 9.000000
vertex 90.000000 90.000000 0.000000
vertex 80.000000 90.000000 9.000000
endloop
endfacet
facet normal 0.556022 -0.556022 0.617802
outer loop
vertex 80.000000 90.000000 9.000000
vertex 90.000000 90.000000 0.000000
vertex 90.000000 100.000000 9.000000
endloop
endfacet
facet normal 0.000000 0.000000 1.000000
outer loop
vertex 80.000000 90.000000 9.000000
vertex 90.000000 100.000000 9.000000
vertex 80.000000 100.000000 9.000000
endloop
endfacet
facet normal 0.000000 0.668965 0.743294
outer loop
vertex 80.000000 100.000000 9.000000
vertex 90.000000 100.000000 9.000000
vertex 90.000000 110.000000 0.000000
endloop
endfacet
facet normal 0.000000 0.668965 0.743294
outer loop
vertex 80.000000 100.000000 9.000000
vertex 90.000000 110.000000 0.000000
vertex 80.000000 110.000000 0.000000
endloop
endfacet
facet normal 0.000000 -0.668965 0.743294
outer loop
vertex 80.000000 110.000000 0.000000
vertex 90.000000 110.000000 0.000000
vertex 90.000000 120.000000 9.000000
endloop
endfacet
facet normal 0.000000 -0.668965 0.743294
outer loop
vertex 80.000000 110.000000 0.000000
vertex 90.000000 120.000000 9.000000
vertex 80.000000 120.000000 9.000000
endloop
endfacet
facet normal 0.000000 -0.668965 0.743294
outer loop
vertex 90.000000 0.000000 0.000000
vertex 100.000000 0.000000 0.000000
vertex 100.000000 10.000000 9.000000
endloop
endfacet
facet normal 0.000000 -0.668965 0.743294
outer loop
vertex 90.000000 0.000000 0.000000
vertex 100.000000 10.000000 9.000000
vertex 90.000000 10.000000 9.000000
endloop
endfacet
facet normal 0.000000 0.668965 0.743294
outer loop
vertex 90.000000 10.000000 9.000000
vertex 100.000000 10.000000 9.000000
vertex 100.000000 20.000000 0.000000
endloop
endfacet
facet normal 0.000000 0.668965 0.743294
outer loop
vertex 90.000000 10.000000 9.000000
vertex 100.000000 20.000000 0.000000
vertex 90.000000 20.000000 0.000000
endloop
endfacet
facet normal 0.000000 -0.668965 0.743294
outer loop
vertex 90.000000 20.000000 0.000000
vertex 100.000000 20.000000 0.000000
vertex 100.000000 30.000000 9.000000
endloop
endfacet
facet normal 0.000000 -0.668965 0.743294
outer loop
vertex 90.000000 20.000000 0.000000
vertex 100.000000 30.000000 9.000000
vertex 90.000000 30.000000 9.000000
endloop
endfacet
facet normal 0.000000 0.668965 0.743294
outer loop
vertex 90.000000 30.000000 9.000000
vertex 100.000000 30.000000 9.000000
vertex 100.000000 40.000000 0.000000
endloop
endfacet
facet normal 0.000000 0.668965 0.743294
outer loop
vertex 90.000000 30.000000 9.000000
vertex 100.000000 40.000000 0.000000
vertex 90.000000 40.000000 0.000000
endloop
endfacet
facet normal 0.000000 -0.668965 0.743294
outer loop
vertex 90.000000 40.000000 0.000000
vertex 100.000000 40.000000 0.000000
vertex 100.000000 50.000000 9.000000
endloop
endfacet
facet normal 0.000000 -0.668965 0.743294
outer loop
vertex 90.000000 40.000000 0.000000
vertex 100.000000 50.000000 9.000000
vertex 90.000000 50.000000 9.000000
endloop
endfacet
facet normal 0.000000 0.000000 1.000000
outer loop
vertex 90.000000 50.000000 9.000000
vertex 100.000000 50.000000 9.000000
vertex 100.000000 60.000000 9.000000
endloop
endfacet
facet normal -0.556022 0.556022 0.617802
outer loop
vertex 90.000000 50.000000 9.000000
vertex 100.000000 60.000000 9.000000
vertex 90.000000 60.000000 0.000000
endloop
endfacet
facet normal -0.556022 0.556022 0.617802
outer loop
vertex 90.000000 60.000000 0.000000
vertex 100.000000 60.000000 9.000000
vertex 100.000000 70.000000 0.000000
endloop
endfacet
facet normal 0.000000 0.000000 1.000000
outer loop
vertex 90.000000 60.000000 0.000000
vertex 100.000000 70.000000 0.000000
vertex 90.000000 70.000000 0.000000
endloop
endfacet
facet normal 0.000000 0.000000 1.000000
outer loop
vertex 90.000000 70.000000 0.000000
vertex 100.000000 70.000000 0.000000
vertex 100.000000 80.000000 0.000000
endloop
endfacet
facet normal 0.556022 -0.556022 0.617802
outer loop
vertex 90.000000 70.000000 0.000000
vertex 100.000000 80.000000 0.000000
vertex 90.000000 80.000000 9.000000
endloop
endfacet
facet normal 0.556022 0.556022 0.617802
outer loop
vertex 90.000000 80.000000 9.000000
vertex 100.000000 80.000000 0.000000
vertex 90.000000 90.000000 0.000000
endloop
endfacet
facet normal -0.556022 -0.556022 0.617802
outer loop
vertex 100.000000 80.000000 0.000000
vertex 100.000000 90.000000 9.000000
vertex 90.000000 90.000000 0.000000
endloop
endfacet
facet normal -0.668965 0.000000 0.743294
outer loop
vertex 90.000000 90.000000 0.000000
vertex 100.000000 90.000000 9.000000
vertex 100.000000 100.000000 9.000000
endloop
endfacet
facet normal 0.000000 -0.668965 0.743294
outer loop
vertex 90.000000 90.000000 0.000000
vertex 100.000000 100.000000 9.000000
vertex 90.000000 100.000000 9.000000
endloop
endfacet
facet normal 0.000000 0.668965 0.743294
outer loop
vertex 90.000000 100.000000 9.000000
vertex 100.000000 100.000000 9.000000
vertex 100.000000 110.000000 0.000000
endloop
endfacet
facet normal 0.000000 0.668965 0.743294
outer loop
vertex 90.000000 100.000000 9.000000
vertex 100.000000 110.000000 0.000000
vertex 90.000000 110.000000 0.000000
endloop
endfacet
facet normal 0.000000 -0.668965 0.743294
outer loop
vertex 90.000000 110.000000 0.000000
vertex 100.000000 110.000000 0.000000
vertex 100.000000 120.000000 9.000000
endloop
endfacet
facet normal 0.000000 -0.668965 0.743294
outer loop
vertex 90.000000 110.000000 0.000000
vertex 100.000000 120.000000 9.000000
vertex 90.000000 120.000000 9.000000
endloop
endfacet
facet normal 0.000000 -0.668965 0.743294
outer loop
vertex 100.000000 0.000000 0.000000
vertex 110.000000 0.000000 0.000000
vertex 110.000000 10.000000 9.000000
endloop
endfacet
facet normal 0.000000 -0.668965 0.743294
outer loop
vertex 100.000000 0.000000 0.000000
vertex 110.000000 10.000000 9.000000
vertex 100.000000 10.000000 9.000000
endloop
endfacet
facet normal 0.000000 0.668965 0.743294
outer loop
vertex 100.000000 10.000000 9.000000
vertex 110.000000 10.000000 9.000000
vertex 110.000000 20.000000 0.000000
endloop
endfacet
facet normal 0.000000 0.668965 0.743294
outer loop
vertex 100.000000 10.000000 9.000000
vertex 110.000000 20.000000 0.000000
vertex 100.000000 20.000000 0.000000
endloop
endfacet
facet normal 0.000000 -0.668965 0.743294
outer loop
vertex 100.000000 20.000000 0.000000
vertex 110.000000 20.000000 0.000000
vertex 110.000000 30.000000 9.000000
endloop
endfacet
facet normal 0.000000 -0.668965 0.743294
outer loop
vertex 100.000000 20.000000 0.000000
vertex 110.000000 30.000000 9.000000
vertex 100.000000 30.000000 9.000000
endloop
endfacet
facet normal 0.000000 0.668965 0.743294
outer loop
vertex 100.000000 30.000000 9.000000
vertex 110.000000 30.000000 9.000000
vertex 110.000000 40.000000 0.000000
endloop
endfacet
facet normal 0.000000 0.668965 0.743294
outer loop
vertex 100.000000 30.000000 9.000000
vertex 110.000000 40.000000 0.000000
vertex 100.000000 40.000000 0.000000
endloop
endfacet
facet normal 0.000000 -0.668965 0.743294
outer loop
vertex 100.000000 40.000000 0.000000
vertex 110.000000 40.000000 0.000000
vertex 110.000000 50.000000 9.000000
endloop
endfacet
facet normal 0.000000 -0.668965 0.743294
outer loop
vertex 100.000000 40.000000 0.000000
vertex 110.000000 50.000000 9.000000
vertex 100.000000 50.000000 9.000000
endloop
endfacet
facet normal 0.000000 0.668965 0.743294
outer loop
vertex 100.000000 50.000000 9.000000
vertex 110.000000 50.000000 9.000000
vertex 110.000000 60.000000 0.000000
endloop
endfacet
facet normal 0.668965 0.000000 0.743294
outer loop
vertex 100.000000 50.000000 9.000000
vertex 110.000000 60.000000 0.000000
vertex 100.000000 60.000000 9.000000
endloop
endfacet
facet normal 0.668965 0.000000 0.743294
outer loop
vertex 100.000000 60.000000 9.000000
vertex 110.000000 60.000000 0.000000
vertex 110.000000 70.000000 0.000000
endloop
endfacet
facet normal 0.000000 0.668965 0.743294
outer loop
vertex 100.000000 60.000000 9.000000
vertex 110.000000 70.000000 0.000000
vertex 100.000000 70.000000 0.000000
endloop
endfacet
facet normal 0.000000 0.000000 1.000000
outer loop
vertex 100.000000 70.000000 0.000000
vertex 110.000000 70.000000 0.000000
vertex 110.000000 80.000000 0.000000
endloop
endfacet
facet normal 0.000000 0.000000 1.000000
outer loop
vertex 100.000000 70.000000 0.000000
vertex 110.000000 80.000000 0.000000
vertex 100.000000 80.000000 0.000000
endloop
endfacet
facet normal 0.000000 0.000000 1.000000
outer loop
vertex 100.000000 80.000000 0.000000
vertex 110.000000 80.000000 0.000000
vertex 110.000000 90.000000 0.000000
endloop
endfacet
facet normal 0.556022 -0.556022 0.617802
outer loop
vertex 100.000000 80.000000 0.000000
vertex 110.000000 90.000000 0.000000
vertex 100.000000 90.000000 9.000000
endloop
endfacet
facet normal 0.668965 0.000000 0.743294
outer loop
vertex 100.000000 90.000000 9.000000
vertex 110.000000 90.000000 0.000000
vertex 110.000000 100.000000 0.000000
endloop
endfacet
facet normal 0.668965 0.000000 0.743294
outer loop
vertex 100.000000 90.000000 9.000000
vertex 110.000000 100.000000 0.000000
vertex 100.000000 100.000000 9.000000
endloop
endfacet
facet normal 0.668965 0.000000 0.743294
outer loop
vertex 100.000000 100.000000 9.000000
vertex 110.000000 100.000000 0.000000
vertex 110.000000 110.000000 0.000000
endloop
endfacet
facet normal 0.000000 0.668965 0.743294
outer loop
vertex 100.000000 100.000000 9.000000
vertex 110.000000 110.000000 0.000000
vertex 100.000000 110.000000 0.000000
endloop
endfacet
facet normal 0.000000 0.000000 1.000000
outer loop
vertex 100.000000 110.000000 0.000000
vertex 110.000000 110.000000 0.000000
vertex 110.000000 120.000000 0.000000
endloop
endfacet
facet normal 0.556022 -0.556022 0.617802
outer loop
vertex 100.000000 110.000000 0.000000
vertex 110.000000 120.000000 0.000000
vertex 100.000000 120.000000 9.000000
endloop
endfacet
endsolid Exported from Blender-2.91.2
