<svg xmlns="http://www.w3.org/2000/svg" width="15" height="18" viewBox="0 0 15 18">
  <g id="map-pin" transform="translate(-3 -1)">
    <path id="Subtraction_2" data-name="Subtraction 2" d="M7.5,18h0a25,25,0,0,1-3.75-3.17,16.525,16.525,0,0,1-2.578-3.388A8.429,8.429,0,0,1,0,7.364,7.441,7.441,0,0,1,7.5,0,7.441,7.441,0,0,1,15,7.364a8.429,8.429,0,0,1-1.172,4.078A16.522,16.522,0,0,1,11.25,14.83,24.992,24.992,0,0,1,7.5,18Zm0-13.091A2.455,2.455,0,1,0,10,7.364,2.481,2.481,0,0,0,7.5,4.909Z" transform="translate(3 1)" fill="#fff"/>
  </g>
</svg>
