<svg xmlns="http://www.w3.org/2000/svg" width="50" height="64.931" viewBox="0 0 50 64.931">
  <g id="carleton-university-vector-logo" transform="translate(-2.173 0.001)">
    <path id="Subtraction_3" data-name="Subtraction 3" d="M25,64.931h0c-.268-.1-.577-.193-.9-.293-.468-.144-.952-.292-1.345-.46a43.3,43.3,0,0,1-9.137-5.134,38.912,38.912,0,0,1-7.664-7.511c-.526-.7-1.029-1.428-1.494-2.172-.209-.325-.453-.737-.727-1.227L3.7,48.086A30,30,0,0,1,0,33.07v-.019C0,30.785.023,10.7.093,3.361A88.571,88.571,0,0,1,11.75.925,86.916,86.916,0,0,1,23.8,0h.269l0,.011h.463c2.235,0,4.655.169,4.679.171l.029.005A112.812,112.812,0,0,1,45.238,2.232c1.316.26,2.382.509,3.168.74l.417.106h.005c.359.091.73.185,1.078.285.071,7.478.091,28.791.092,29.7v.014a30.637,30.637,0,0,1-2.162,11.77c-.159.4-.338.8-.494,1.147-.292.651-.616,1.3-.964,1.939-.015.026-.028.053-.041.079s-.026.054-.041.079l-.525.891c-.529.876-1.107,1.736-1.719,2.556a36.828,36.828,0,0,1-7.471,7.357c-.515.379-1.04.747-1.56,1.1L35,60l-.195.137a43.807,43.807,0,0,1-5.971,3.327l-.365.18-.01,0c-.266.132-.541.267-.827.4L27.2,64.2c-.388.161-.854.305-1.305.445-.322.1-.626.193-.891.29ZM20.894,29.774c-.45,0-.932.024-1.432.072a38.718,38.718,0,0,0-9.088,2.145l-1.082.422-.139.657-.63.207L4.994,48c2.1-.388,6.16-.969,8.353-1.2a53.343,53.343,0,0,1,6.241-.366c.695,0,1.407.012,2.176.038,0,.023-.006.046-.009.068a.386.386,0,0,0,.038.294,2.216,2.216,0,0,0,1.361.349c.115.007.234.014.348.024.637.027.906.033,1.5.039h.189c.371,0,.62-.011.965-.026h.02l.328-.014c.112-.01.226-.017.347-.024a2.22,2.22,0,0,0,1.363-.349.392.392,0,0,0,.038-.295c0-.022-.006-.044-.009-.067.776-.026,1.488-.038,2.175-.038a53.287,53.287,0,0,1,6.24.366c2.194.228,6.252.81,8.35,1.2L41.539,33.277l-.629-.207-.136-.657-1.081-.422a38.624,38.624,0,0,0-9.075-2.145c-.5-.048-.983-.072-1.434-.072A7.589,7.589,0,0,0,25.035,30.8,7.551,7.551,0,0,0,20.894,29.774ZM5.836,23.5c-.008,0-.014.03-.018.088a1.546,1.546,0,0,1-.568.937l-1.909.984,6.187,5.486.414-.16.022-.008a39.76,39.76,0,0,1,9.376-2.209c.541-.052,1.064-.078,1.556-.078a9.172,9.172,0,0,1,4.136.846,9.208,9.208,0,0,1,4.143-.846c.492,0,1.015.026,1.556.078A39.8,39.8,0,0,1,40.1,30.824l.02.008.37.146,6.169-5.47-1.909-.984a1.568,1.568,0,0,1-.57-.936c0-.058-.008-.088-.017-.088s-.007,0-.013.022l0-.018v-.012c.007-.043.012-.077.015-.106a2.974,2.974,0,0,1,.184-.658c-.005-.016.358-1.117.374-1.133l1.486-5.241-4.385,1.206a2.424,2.424,0,0,0-.4.073c-.1.023-.194.047-.294.061l-.04.006a3.294,3.294,0,0,1-.431.041.64.64,0,0,1-.516-.2l-1.76-3.347-5.006,5.267-.4.394a1.08,1.08,0,0,1-.651.233.9.9,0,0,1-.727-.37,1.982,1.982,0,0,1-.134-1.734L33.719,6.9,30.647,8.652c-.45.187-.8.32-1.34.492a.338.338,0,0,1-.1.016.623.623,0,0,1-.4-.2l-.013-.021c-.216-.356-.579-.952-.7-1.226L25,1.491,21.9,7.715c-.127.283-.5.9-.712,1.247a.642.642,0,0,1-.4.2.34.34,0,0,1-.1-.015c-.455-.142-.906-.308-1.34-.492L16.273,6.9l2.254,11.074a1.985,1.985,0,0,1-.135,1.735.893.893,0,0,1-.725.37,1.079,1.079,0,0,1-.651-.233l-.4-.393-5-5.269L9.856,17.534a.642.642,0,0,1-.516.2,3.211,3.211,0,0,1-.433-.042l-.038-.005c-.1-.014-.2-.038-.3-.062a2.38,2.38,0,0,0-.4-.072l-4.387-1.2,1.485,5.241c.015.016.378,1.117.374,1.132a3.022,3.022,0,0,1,.182.659c0,.031.008.063.015.105l0,.024C5.843,23.5,5.84,23.5,5.836,23.5ZM43.188,46.04h0a45.357,45.357,0,0,0-12.094-2.575c-.417-.023-.8-.034-1.157-.034a9.5,9.5,0,0,0-4.531.932l-.059-13.106a7.306,7.306,0,0,1,4.142-.955c.33,0,.676.011,1.026.032a35.165,35.165,0,0,1,9.659,2.386l3.014,13.319ZM29.752,39.352a17.311,17.311,0,0,1,2.9.3,46.176,46.176,0,0,1,6.915,1.805l-.133-.6a45.9,45.9,0,0,0-8.432-2,10.294,10.294,0,0,0-1.159-.061,7.348,7.348,0,0,0-2.821.483v.571h0l0,0h0A6.9,6.9,0,0,1,29.752,39.352Zm0-2.687a17.324,17.324,0,0,1,2.9.3l.47.082a35.213,35.213,0,0,1,5.761,1.364l-.137-.6A46.744,46.744,0,0,0,31,36.17a10.331,10.331,0,0,0-1.164-.062,7.3,7.3,0,0,0-2.816.485v.565A6.924,6.924,0,0,1,29.75,36.665Zm0-2.649a17.249,17.249,0,0,1,2.9.3,31.41,31.41,0,0,1,5.608,1.461l-.135-.6A32.514,32.514,0,0,0,31,33.517a10.328,10.328,0,0,0-1.152-.06,7.354,7.354,0,0,0-2.828.485v.567A6.914,6.914,0,0,1,29.747,34.016ZM6.819,46.04h0L9.89,32.721a35.709,35.709,0,0,1,9.667-2.386c.357-.022.7-.033,1.031-.033a7.28,7.28,0,0,1,4.135.955l-.115,13.105a9.479,9.479,0,0,0-4.526-.931c-.369,0-.747.011-1.157.034A45.469,45.469,0,0,0,6.82,46.04ZM20.1,38.792a10.41,10.41,0,0,0-1.159.061,45.955,45.955,0,0,0-8.434,2l-.134.6a46.234,46.234,0,0,1,6.915-1.805,17.293,17.293,0,0,1,2.9-.3,6.9,6.9,0,0,1,2.737.5v-.573A7.352,7.352,0,0,0,20.1,38.792Zm0-2.686a10.31,10.31,0,0,0-1.162.061,47.121,47.121,0,0,0-7.747,1.644l-.135.6a35.179,35.179,0,0,1,5.76-1.364l.1-.018.367-.064a17.342,17.342,0,0,1,2.9-.3,6.916,6.916,0,0,1,2.734.494v-.567A7.307,7.307,0,0,0,20.1,36.106Zm-.01-2.649a10.326,10.326,0,0,0-1.152.06,32.115,32.115,0,0,0-7.124,1.662l-.135.6a31.352,31.352,0,0,1,5.606-1.461,17.267,17.267,0,0,1,2.9-.3,6.891,6.891,0,0,1,2.731.5v-.568A7.353,7.353,0,0,0,20.093,33.457Z" transform="translate(2.174 -0.001)" fill="#fff"/>
  </g>
</svg>
