<?xml version="1.0" encoding="UTF-8" standalone="no"?>
<!DOCTYPE svg PUBLIC "-//W3C//DTD SVG 1.1//EN" "http://www.w3.org/Graphics/SVG/1.1/DTD/svg11.dtd">
<svg width="100%" height="100%" viewBox="0 0 237 237" version="1.1" xmlns="http://www.w3.org/2000/svg" xmlns:xlink="http://www.w3.org/1999/xlink" xml:space="preserve" xmlns:serif="http://www.serif.com/" style="fill-rule:evenodd;clip-rule:evenodd;stroke-linejoin:round;stroke-miterlimit:2;">
    <g transform="matrix(1,0,0,1,-202690,-67094.7)">
        <g transform="matrix(0.357516,0,0,0.444057,139335,35331.6)">
            <g transform="matrix(0.597815,0,0,0.481309,116300,65086.5)">
                <circle cx="102436" cy="13938.8" r="553.055"/>
            </g>
        </g>
        <g transform="matrix(0.357516,0,0,0.444057,139335,35331.6)">
            <g transform="matrix(0.29875,0,0,0.240528,147101,68442.7)">
                <circle cx="102436" cy="13938.8" r="553.055" style="fill:white;"/>
            </g>
        </g>
        <g transform="matrix(0.357516,0,0,0.444057,139335,35331.6)">
            <g transform="matrix(0.29875,0,0,0.240528,146770,68434.6)">
                <circle cx="102436" cy="13938.8" r="553.055" style="fill:white;"/>
            </g>
        </g>
        <g transform="matrix(0.357516,0,0,0.444057,139335,35331.6)">
            <g transform="matrix(0.149257,0,0,0.120169,162166,70114.3)">
                <circle cx="102436" cy="13938.8" r="553.055"/>
            </g>
        </g>
        <g transform="matrix(0.357516,0,0,0.444057,139335,35331.6)">
            <g transform="matrix(0.149257,0,0,0.120169,162497,70118.3)">
                <circle cx="102436" cy="13938.8" r="553.055"/>
            </g>
        </g>
        <g transform="matrix(0.357516,0,0,0.444057,139335,35331.6)">
            <g transform="matrix(0.149257,0,0,0.120169,162001,70110.2)">
                <circle cx="102436" cy="13938.8" r="553.055"/>
            </g>
        </g>
        <g transform="matrix(0.357516,0,0,0.444057,139335,35331.6)">
            <g transform="matrix(0.149257,0,0,0.120169,162332,70114.3)">
                <circle cx="102436" cy="13938.8" r="553.055"/>
            </g>
        </g>
        <g transform="matrix(0.357516,0,0,0.444057,139335,35331.6)">
            <g transform="matrix(0.0745695,0,0,0.0600369,169693,70952.5)">
                <circle cx="102436" cy="13938.8" r="553.055" style="fill:white;"/>
            </g>
        </g>
        <g transform="matrix(0.357516,0,0,0.444057,139335,35331.6)">
            <g transform="matrix(0.0745695,0,0,0.0600369,170024,70956.5)">
                <circle cx="102436" cy="13938.8" r="553.055" style="fill:white;"/>
            </g>
        </g>
        <g transform="matrix(0.357516,0,0,0.444057,139335,35331.6)">
            <g transform="matrix(0.0745695,0,0,0.0600369,169858,70954.5)">
                <circle cx="102436" cy="13938.8" r="553.055" style="fill:white;"/>
            </g>
        </g>
        <g transform="matrix(0.357516,0,0,0.444057,139335,35331.6)">
            <g transform="matrix(0.0745695,0,0,0.0600369,170189,70958.5)">
                <circle cx="102436" cy="13938.8" r="553.055" style="fill:white;"/>
            </g>
        </g>
        <g transform="matrix(0.357516,0,0,0.444057,139335,35331.6)">
            <g transform="matrix(0.0745695,0,0,0.0600369,169610,70950.4)">
                <circle cx="102436" cy="13938.8" r="553.055" style="fill:white;"/>
            </g>
        </g>
        <g transform="matrix(0.357516,0,0,0.444057,139335,35331.6)">
            <g transform="matrix(0.0745695,0,0,0.0600369,169941,70954.5)">
                <circle cx="102436" cy="13938.8" r="553.055" style="fill:white;"/>
            </g>
        </g>
        <g transform="matrix(0.357516,0,0,0.444057,139335,35331.6)">
            <g transform="matrix(0.0745695,0,0,0.0600369,169776,70952.5)">
                <circle cx="102436" cy="13938.8" r="553.055" style="fill:white;"/>
            </g>
        </g>
        <g transform="matrix(0.357516,0,0,0.444057,139335,35331.6)">
            <g transform="matrix(0.0745695,0,0,0.0600369,170106,70956.5)">
                <circle cx="102436" cy="13938.8" r="553.055" style="fill:white;"/>
            </g>
        </g>
    </g>
</svg>
