<svg xmlns="http://www.w3.org/2000/svg" width="50" height="35.441" viewBox="0 0 50 35.441">
  <path id="Union_1" data-name="Union 1" d="M38.647,34.4,25.08,26.5,11.425,34.4A7.585,7.585,0,0,1,0,27.834V7.607A7.609,7.609,0,0,1,11.456,1.044L25.08,8.927,38.617,1.044A7.552,7.552,0,0,1,50,7.607V27.834a7.577,7.577,0,0,1-7.559,7.607A7.471,7.471,0,0,1,38.647,34.4Zm2.49-4.415a2.35,2.35,0,0,0,1.274.358A2.525,2.525,0,0,0,44.931,27.8V7.577a2.525,2.525,0,0,0-2.519-2.535,2.423,2.423,0,0,0-1.274.357l-11.11,6.5.044.038a7.7,7.7,0,0,1,2.655,5.788,7.975,7.975,0,0,1-2.655,5.8ZM5.072,7.577V27.8A2.534,2.534,0,0,0,7.607,30.34a2.668,2.668,0,0,0,1.283-.358l11.247-6.474.031.024a.085.085,0,0,0-.018-.024,7.553,7.553,0,0,1-2.639-5.757,7.988,7.988,0,0,1,2.632-5.814l-.005,0L8.89,5.4a2.577,2.577,0,0,0-1.283-.357A2.533,2.533,0,0,0,5.072,7.577ZM23.53,15.722a2.53,2.53,0,0,0,0,4l1.541.9.04.023,1.561-.919a2.514,2.514,0,0,0,.985-2,2.56,2.56,0,0,0-.985-2l-1.552-.9-.1-.055Z" fill="#fff"/>
</svg>
