<svg xmlns="http://www.w3.org/2000/svg" width="50" height="67" viewBox="0 0 50 67">
  <g id="Group_4" data-name="Group 4" transform="translate(-590 -910)">
    <path id="Subtraction_1" data-name="Subtraction 1" d="M25,67A62.638,62.638,0,0,1,2.629,62.974,3.977,3.977,0,0,1,0,58.793V0H50V58.793a3.977,3.977,0,0,1-2.631,4.181A62.612,62.612,0,0,1,25,67ZM40.835,48.189c-4.5,0-7.18,2.465-7.18,6.594,0,5.59,4.316,6.424,6.89,6.424,2.969,0,4.171-.945,4.183-.955V58.77a5.173,5.173,0,0,1-3.335.992c-1.39,0-4.632-.492-4.7-5.052A5.676,5.676,0,0,1,37.9,50.554a3.619,3.619,0,0,1,2.688-.977,4.356,4.356,0,0,1,2.319.536,2.465,2.465,0,0,1,1.018,1.018l0,.008a.123.123,0,0,0,.091.031.211.211,0,0,0,.03,0l.635-2.16A7.06,7.06,0,0,0,40.835,48.189Zm-21.622.194v.109a1.979,1.979,0,0,1,.736.437,2.7,2.7,0,0,1,.631,2V61.012h5.582a6.9,6.9,0,0,0,3.8-.921,3.316,3.316,0,0,0,1.495-2.932c0-2.784-2.633-3.171-3.44-3.224a2.82,2.82,0,0,0,2.5-2.707c0-1.325-.519-2.846-4.568-2.846ZM9.421,55.414h1.065l4.12,5.6h3.637L13.6,55.073c2.162-.579,3.258-1.711,3.258-3.368,0-2.3-1.45-3.323-4.7-3.323H5.127v.109a2.13,2.13,0,0,1,.737.445A2.934,2.934,0,0,1,6.5,51.163v9.849H9.421v-5.6Zm14.01-19.371h0a25.794,25.794,0,0,1,5.731,4.962A13.471,13.471,0,0,1,32,48.059h.384a13.659,13.659,0,0,0-.171-4.264h7.737c2.208,0,4.841.583,4.841,3.361h.468l.909-3.166A5.188,5.188,0,0,0,43.414,41.9a10.471,10.471,0,0,0,1.157-15.073c.43-.729,1.148-1.935,1.533-2.582l.25-.419a2.3,2.3,0,0,0,.262-1.413,1.551,1.551,0,0,0-.892-1.232c-.608-.327-4.193-2.244-4.6-2.462l-.012-.006H31.745l-3.338,2.048V14.811H27.335a2.919,2.919,0,0,0,.671-.733l-.118-.266a2.457,2.457,0,0,1-1.652.693,8.414,8.414,0,0,1-2.356-.541,3.2,3.2,0,0,0-.979-.157,3.542,3.542,0,0,0-2.178.813,1.646,1.646,0,0,1,0-.378c.059-.538.432-1.18,1.871-1.18.111,0,.228,0,.348.012,1.2.075,2.2.1,2.6.1h.048a3.586,3.586,0,0,0,2.222-.5,2.378,2.378,0,0,0,.925-1.7c.066-.588.1-1.488.1-2.075V5.036H14.127V2.425H10.344A4.242,4.242,0,0,0,5.968,6.619a3.88,3.88,0,0,0,3.927,4.007h.229V9.1H9.895a1.612,1.612,0,0,1-1.225-.49,2.455,2.455,0,0,1-.537-1.851,2.113,2.113,0,0,1,2.129-2.009h1.785V7.366h5.231V8.615h-1.4v.752l2.934,1.142V7.366h7.755V9.181a7.075,7.075,0,0,1-.052,1.157,1.073,1.073,0,0,1-.292.641,1.262,1.262,0,0,1-.837.266c-.488.028-1.976.064-2.887.064-2.51,0-3.73.943-3.73,2.882a3.572,3.572,0,0,0,3.763,3.619h.062a3.73,3.73,0,0,0,2.424-.79H26.14v1.815a4.947,4.947,0,0,0-1.709-.27,16.917,16.917,0,0,0-3.3.461,20.543,20.543,0,0,1-4.039.467h-.036a4.864,4.864,0,0,1-3.278-1.267,5.384,5.384,0,0,1-1.695-3.56l-1.132-.687c-.2,3.463.979,5.473,4.2,7.169,4.177,2.2,6.808,4.156,7.893,7.67h.385V26.11c3.465,2.28,5.3,4.123,6.148,6.16a12.119,12.119,0,0,1,.838,3.635H30.8a11.008,11.008,0,0,0-.3-5.314,6.166,6.166,0,0,0-.376-.819l-.037-.071,3.173.15a25.718,25.718,0,0,0,.11,4.019l-1.13.063v.371l1.188.069c.073.558.166,1.11.277,1.642h.347c-.019-.513-.012-1.053.017-1.6l5.426.314a22.484,22.484,0,0,1-.359,3.532l-1.193.15v.24l1.1.083c-.086.436-.19.881-.307,1.326h.35a13.535,13.535,0,0,0,.637-1.272l4.308.343a8.561,8.561,0,0,1-2.5,2.536c-.222.013-.654.07-.868.1-.66.107-3.106.489-5.264.827l-.011,0-.035.005-3.29.516a10.343,10.343,0,0,0-.588-1.781c-1.749-3.835-3.742-5.2-13.318-11.765L16.13,28.18c-4.283-2.939-9.4-6.711-11-9.816a7.656,7.656,0,0,1-.8-3.4,5.64,5.64,0,0,1,1.051-3.327v-1.1A5.863,5.863,0,0,0,2.9,15.612a9.216,9.216,0,0,0,.563,3.35c.739,2.006,2.024,3.661,4.912,6.323,2.794,2.579,4.739,4.751,5.8,7.609h.386V29.982l1.195.873.866.633c1.788,1.31,5,4,6.421,7.254h.385v-2.7ZM14.75,39.5h0a37.556,37.556,0,0,1,5.1,3.286,11.84,11.84,0,0,1,3.518,4.366h.392c-.6-3.5-2.4-6.323-10.16-11.167-6.981-4.357-9.338-6.3-9.536-9.2a6.842,6.842,0,0,1,.344-2.273l-.661-.439a5.822,5.822,0,0,0-.866,2.974,7.011,7.011,0,0,0,1.183,3.922c.949,1.46,1.933,2.4,4.579,4.388a17.373,17.373,0,0,1,5.716,7h.392V39.5ZM25.287,59.818h-1.8V54.662H25.2c2.351,0,3.267.694,3.267,2.474C28.472,58.94,27.43,59.818,25.287,59.818Zm-14.32-5.546H9.421V49.586h1.966c1.495,0,2.49.377,2.49,2.218C13.877,53.349,12.789,54.272,10.967,54.272Zm13.793-.778H23.486V49.586h1.658c1.439,0,2.4.312,2.4,1.835C27.54,52.8,26.6,53.493,24.761,53.493ZM40,38.152v0a16.114,16.114,0,0,0,.9-3.34l4.514.263a7.38,7.38,0,0,1-.565,2.454L40,38.152Zm-5.885-4.318h0A28.621,28.621,0,0,1,34.7,29.92l4.383.2a20.5,20.5,0,0,1,.4,3.419l-5.379.292Zm6.941-.375h0a17.032,17.032,0,0,0-.084-3.245l3.614.17a8.743,8.743,0,0,1,.812,2.84l-4.341.236Zm-10.823-4.23v0a8.184,8.184,0,0,1,3.482-2.985,21.63,21.63,0,0,0-.394,2.821l-3.087.165Zm4.7-.255h0a28.7,28.7,0,0,1,1.089-3.405l.1-.012a7.134,7.134,0,0,1,.807-.061c.2,0,.377.005.55.015a16.074,16.074,0,0,1,1.279,3.247l-3.825.217Zm5.778-.328h0a19.828,19.828,0,0,0-.746-2.582,8.562,8.562,0,0,1,3.4,2.433l-2.654.15Zm-11.843-.777h0a17.785,17.785,0,0,0-3.245-2.841l6.713-4.135H40.6l3.743,2L42.9,25.328a9.634,9.634,0,0,0-1.136-.7l.488-1.514-2.237-1.237-.133.24.8,1.087-.514.738a10.168,10.168,0,0,0-3.213-.462,10.036,10.036,0,0,0-8.089,4.389ZM23.612,23.7h0c-1.284-.835-2.814-1.838-3.257-2.148.329-.051.758-.144,1.255-.252a17.486,17.486,0,0,1,3.159-.494h.062a5.531,5.531,0,0,1,2.488.619L23.613,23.7ZM22.7,15.992a2.579,2.579,0,0,1-1.13-.25,2.313,2.313,0,0,1,1.736-.747,4.893,4.893,0,0,1,1.07.139,1.975,1.975,0,0,1-1.46.851C22.841,15.989,22.768,15.992,22.7,15.992Z" transform="translate(590 910)" fill="#fff"/>
  </g>
</svg>
