<svg xmlns="http://www.w3.org/2000/svg" width="50" height="50" viewBox="0 0 50 50">
  <g id="smarticle" transform="translate(-702 -657)">
    <circle id="Ellipse_2" data-name="Ellipse 2" cx="25" cy="25" r="25" transform="translate(702 657)" fill="#fff"/>
    <path id="Path_61" data-name="Path 61" d="M10.792-27.4a10.588,10.588,0,0,1,3.154.38,11.805,11.805,0,0,1,2.394,1.1q.418.228.741.38a1.345,1.345,0,0,0,.551.152.587.587,0,0,0,.532-.4,4.539,4.539,0,0,0,.3-1.273h.874q-.19,2.546-.19,8.664h-.874a12.457,12.457,0,0,0-.931-3.914,7.581,7.581,0,0,0-2.2-3.021,5.112,5.112,0,0,0-3.325-1.159A4.339,4.339,0,0,0,8.8-25.441,3.621,3.621,0,0,0,7.638-22.61a4.557,4.557,0,0,0,.57,2.318,6.43,6.43,0,0,0,1.6,1.805q1.026.817,3.154,2.223l1.216.836a37.282,37.282,0,0,1,3.534,2.584,9.323,9.323,0,0,1,2.109,2.565,6.86,6.86,0,0,1,.817,3.4A6.563,6.563,0,0,1,19.38-2.793,7.626,7.626,0,0,1,15.979-.3,13.044,13.044,0,0,1,11.21.532,13.815,13.815,0,0,1,7.676.152,11.7,11.7,0,0,1,5.092-.874,2.748,2.748,0,0,0,3.8-1.406a.587.587,0,0,0-.532.4,4.539,4.539,0,0,0-.3,1.273H2.09q.152-2.394.152-10.26h.874a14.76,14.76,0,0,0,1.9,6.9A5.489,5.489,0,0,0,10.032-.456a5.123,5.123,0,0,0,3.382-1.1,3.864,3.864,0,0,0,1.33-3.154A5.265,5.265,0,0,0,13.376-8.36a21.741,21.741,0,0,0-4.332-3.42Q6.764-13.262,5.4-14.364a9.377,9.377,0,0,1-2.242-2.6,6.783,6.783,0,0,1-.874-3.477A6.334,6.334,0,0,1,3.439-24.3a6.85,6.85,0,0,1,3.1-2.337A11.561,11.561,0,0,1,10.792-27.4Z" transform="translate(716 695)"/>
  </g>
</svg>
